<svg width="34" height="34" viewBox="0 0 34 34" fill="none" xmlns="http://www.w3.org/2000/svg">
<rect width="34" height="34" fill="black"/>
<path d="M15.56 20L6.2 5.44C6.01333 5.17333 5.8 4.96 5.56 4.8C5.32 4.61333 5.04 4.49333 4.72 4.44L2.6 3.96V3.08H17V3.96L14.96 4.4C14.32 4.53333 13.8267 4.77333 13.48 5.12C13.16 5.44 13.2133 5.93333 13.64 6.6L18.96 15.08H18.28L24.48 6.16C24.6933 5.84 24.7467 5.56 24.64 5.32C24.5333 5.05333 24.1733 4.85333 23.56 4.72L20.16 3.96V3.08H31.32V3.96L28.8 4.48C28.2933 4.58667 27.8667 4.74667 27.52 4.96C27.1733 5.14667 26.9067 5.46667 26.72 5.92L17.28 19.72L15.56 20ZM9.56 30V29.12L11.6 28.68C12.5333 28.4667 13.12 28.2267 13.36 27.96C13.6267 27.6933 13.76 27.1467 13.76 26.32V15.88L19.36 15.56V26.32C19.36 27.1467 19.4933 27.6933 19.76 27.96C20.0267 28.2267 20.6133 28.4667 21.52 28.68L23.56 29.12V30H9.56Z" fill="white"/>
</svg>
