<svg width="137" height="40" viewBox="0 0 137 40" fill="none" xmlns="http://www.w3.org/2000/svg">
<path d="M11.426 39.028C11.314 39.028 11.2113 38.9813 11.118 38.888C11.034 38.7947 10.9593 38.6873 10.894 38.566L8.794 34.464H7.17V38.58C7.17 38.72 7.10933 38.8273 6.988 38.902C6.86667 38.9673 6.73133 39 6.582 39C6.442 39 6.30667 38.9673 6.176 38.902C6.05467 38.8273 5.994 38.72 5.994 38.58V29.172C5.994 29.06 6.03133 28.9667 6.106 28.892C6.19 28.8173 6.29267 28.7753 6.414 28.766H8.976C9.54533 28.766 10.0633 28.8547 10.53 29.032C11.006 29.2 11.384 29.4893 11.664 29.9C11.944 30.3013 12.084 30.8567 12.084 31.566C12.084 32.1353 11.9907 32.6067 11.804 32.98C11.6267 33.3533 11.3793 33.6473 11.062 33.862C10.7447 34.0673 10.39 34.212 9.998 34.296L12.07 38.23C12.0887 38.2673 12.1027 38.3047 12.112 38.342C12.1213 38.37 12.126 38.398 12.126 38.426C12.126 38.5287 12.0887 38.6267 12.014 38.72C11.9487 38.8133 11.86 38.888 11.748 38.944C11.6453 39 11.538 39.028 11.426 39.028ZM7.17 33.484H8.976C9.55467 33.484 10.0213 33.344 10.376 33.064C10.7307 32.784 10.908 32.3127 10.908 31.65C10.908 30.9873 10.7307 30.5207 10.376 30.25C10.0213 29.97 9.55467 29.83 8.976 29.83H7.17V33.484ZM15.1929 39C15.0622 39 14.9409 38.9673 14.8289 38.902C14.7169 38.8273 14.6609 38.72 14.6609 38.58V29.186C14.6609 29.046 14.7169 28.9433 14.8289 28.878C14.9409 28.8033 15.0622 28.766 15.1929 28.766H20.1769C20.3262 28.766 20.4289 28.822 20.4849 28.934C20.5502 29.046 20.5829 29.1627 20.5829 29.284C20.5829 29.424 20.5455 29.55 20.4709 29.662C20.4055 29.774 20.3075 29.83 20.1769 29.83H15.8369V33.386H18.0209C18.1515 33.386 18.2495 33.4373 18.3149 33.54C18.3895 33.6427 18.4269 33.7593 18.4269 33.89C18.4269 34.002 18.3942 34.1093 18.3289 34.212C18.2729 34.3147 18.1702 34.366 18.0209 34.366H15.8369V37.936H20.1769C20.3075 37.936 20.4055 37.992 20.4709 38.104C20.5455 38.2067 20.5829 38.3327 20.5829 38.482C20.5829 38.6033 20.5502 38.72 20.4849 38.832C20.4289 38.944 20.3262 39 20.1769 39H15.1929ZM25.4083 39.112C24.8109 39.112 24.2883 39.0233 23.8403 38.846C23.3923 38.6593 23.0469 38.4447 22.8043 38.202C22.5616 37.95 22.4403 37.726 22.4403 37.53C22.4403 37.4367 22.4636 37.3433 22.5103 37.25C22.5663 37.1473 22.6316 37.0633 22.7063 36.998C22.7903 36.9233 22.8743 36.886 22.9583 36.886C23.0703 36.886 23.1776 36.942 23.2803 37.054C23.3923 37.166 23.5276 37.3013 23.6863 37.46C23.8543 37.6093 24.0689 37.74 24.3303 37.852C24.5916 37.964 24.9323 38.02 25.3523 38.02C25.7443 38.02 26.0849 37.9593 26.3743 37.838C26.6636 37.7073 26.8876 37.516 27.0463 37.264C27.2143 37.0027 27.2983 36.676 27.2983 36.284C27.2983 35.8827 27.2143 35.556 27.0463 35.304C26.8783 35.052 26.6543 34.842 26.3743 34.674C26.1036 34.506 25.8049 34.3567 25.4783 34.226C25.1609 34.0953 24.8343 33.9647 24.4983 33.834C24.1716 33.694 23.8729 33.526 23.6023 33.33C23.3316 33.1247 23.1123 32.8633 22.9443 32.546C22.7763 32.2287 22.6923 31.8273 22.6923 31.342C22.6923 30.8287 22.7856 30.404 22.9723 30.068C23.1589 29.732 23.4063 29.466 23.7143 29.27C24.0223 29.074 24.3536 28.9387 24.7083 28.864C25.0723 28.78 25.4269 28.738 25.7723 28.738C26.0243 28.738 26.2903 28.7567 26.5703 28.794C26.8503 28.8313 27.1163 28.8873 27.3683 28.962C27.6203 29.0367 27.8256 29.1347 27.9843 29.256C28.1429 29.368 28.2223 29.5033 28.2223 29.662C28.2223 29.7367 28.2036 29.8253 28.1663 29.928C28.1289 30.0213 28.0729 30.11 27.9983 30.194C27.9236 30.2687 27.8303 30.306 27.7183 30.306C27.6156 30.306 27.4896 30.264 27.3403 30.18C27.1909 30.0867 26.9903 29.998 26.7383 29.914C26.4956 29.8207 26.1736 29.774 25.7723 29.774C25.4363 29.774 25.1189 29.8207 24.8203 29.914C24.5309 30.0073 24.2976 30.1613 24.1203 30.376C23.9523 30.5907 23.8683 30.8753 23.8683 31.23C23.8683 31.566 23.9523 31.8413 24.1203 32.056C24.2883 32.2707 24.5076 32.448 24.7783 32.588C25.0489 32.728 25.3476 32.8587 25.6743 32.98C26.0009 33.092 26.3276 33.2273 26.6543 33.386C26.9809 33.5353 27.2796 33.722 27.5503 33.946C27.8303 34.17 28.0543 34.464 28.2223 34.828C28.3903 35.1827 28.4743 35.6307 28.4743 36.172C28.4743 36.844 28.3389 37.3993 28.0683 37.838C27.8069 38.2673 27.4476 38.5893 26.9903 38.804C26.5329 39.0093 26.0056 39.112 25.4083 39.112ZM33.5009 39C33.3516 39 33.2163 38.9673 33.0949 38.902C32.9736 38.8273 32.9129 38.72 32.9129 38.58V29.858H30.6449C30.5236 29.858 30.4256 29.802 30.3509 29.69C30.2763 29.578 30.2389 29.4473 30.2389 29.298C30.2389 29.1673 30.2716 29.046 30.3369 28.934C30.4023 28.822 30.5049 28.766 30.6449 28.766H36.3569C36.4969 28.766 36.5996 28.822 36.6649 28.934C36.7303 29.046 36.7629 29.1673 36.7629 29.298C36.7629 29.438 36.7303 29.5687 36.6649 29.69C36.5996 29.802 36.4969 29.858 36.3569 29.858H34.0889V38.58C34.0889 38.72 34.0283 38.8273 33.9069 38.902C33.7856 38.9673 33.6503 39 33.5009 39ZM38.1856 39C38.0922 39 37.9849 38.9813 37.8636 38.944C37.7516 38.8973 37.6582 38.8367 37.5836 38.762C37.5182 38.6873 37.4856 38.6033 37.4856 38.51C37.4856 38.4727 37.4902 38.4353 37.4996 38.398L40.3696 29.088C40.4069 28.948 40.4956 28.8453 40.6356 28.78C40.7756 28.7147 40.9249 28.682 41.0836 28.682C41.2516 28.682 41.4056 28.7193 41.5456 28.794C41.6856 28.8593 41.7742 28.9573 41.8116 29.088L44.6676 38.398C44.6862 38.4353 44.6956 38.468 44.6956 38.496C44.6956 38.5893 44.6536 38.6733 44.5696 38.748C44.4949 38.8227 44.4016 38.8833 44.2896 38.93C44.1776 38.9767 44.0702 39 43.9676 39C43.8649 39 43.7762 38.9813 43.7016 38.944C43.6269 38.8973 43.5756 38.8273 43.5476 38.734L42.9176 36.648H39.2356L38.6336 38.734C38.6056 38.8273 38.5496 38.8973 38.4656 38.944C38.3909 38.9813 38.2976 39 38.1856 39ZM39.5156 35.682H42.6516L41.0836 30.418L39.5156 35.682ZM50.0415 39.084C49.4628 39.084 48.9448 38.986 48.4875 38.79C48.0302 38.5847 47.6662 38.2627 47.3955 37.824C47.1248 37.376 46.9895 36.7787 46.9895 36.032V29.172C46.9895 29.032 47.0455 28.9293 47.1575 28.864C47.2788 28.7987 47.4188 28.766 47.5775 28.766C47.7268 28.766 47.8622 28.7987 47.9835 28.864C48.1048 28.9293 48.1655 29.032 48.1655 29.172V36.032C48.1655 36.7133 48.3288 37.2173 48.6555 37.544C48.9822 37.8613 49.4442 38.02 50.0415 38.02C50.6295 38.02 51.0868 37.8613 51.4135 37.544C51.7495 37.2173 51.9175 36.7133 51.9175 36.032V29.172C51.9175 29.032 51.9782 28.9293 52.0995 28.864C52.2208 28.7987 52.3562 28.766 52.5055 28.766C52.6548 28.766 52.7902 28.7987 52.9115 28.864C53.0328 28.9293 53.0935 29.032 53.0935 29.172V36.032C53.0935 36.7787 52.9582 37.376 52.6875 37.824C52.4168 38.2627 52.0482 38.5847 51.5815 38.79C51.1242 38.986 50.6108 39.084 50.0415 39.084ZM61.5952 39.028C61.4832 39.028 61.3806 38.9813 61.2872 38.888C61.2032 38.7947 61.1286 38.6873 61.0632 38.566L58.9632 34.464H57.3392V38.58C57.3392 38.72 57.2786 38.8273 57.1572 38.902C57.0359 38.9673 56.9006 39 56.7512 39C56.6112 39 56.4759 38.9673 56.3452 38.902C56.2239 38.8273 56.1632 38.72 56.1632 38.58V29.172C56.1632 29.06 56.2006 28.9667 56.2752 28.892C56.3592 28.8173 56.4619 28.7753 56.5832 28.766H59.1452C59.7146 28.766 60.2326 28.8547 60.6992 29.032C61.1752 29.2 61.5532 29.4893 61.8332 29.9C62.1132 30.3013 62.2532 30.8567 62.2532 31.566C62.2532 32.1353 62.1599 32.6067 61.9732 32.98C61.7959 33.3533 61.5486 33.6473 61.2312 33.862C60.9139 34.0673 60.5592 34.212 60.1672 34.296L62.2392 38.23C62.2579 38.2673 62.2719 38.3047 62.2812 38.342C62.2906 38.37 62.2952 38.398 62.2952 38.426C62.2952 38.5287 62.2579 38.6267 62.1832 38.72C62.1179 38.8133 62.0292 38.888 61.9172 38.944C61.8146 39 61.7072 39.028 61.5952 39.028ZM57.3392 33.484H59.1452C59.7239 33.484 60.1906 33.344 60.5452 33.064C60.8999 32.784 61.0772 32.3127 61.0772 31.65C61.0772 30.9873 60.8999 30.5207 60.5452 30.25C60.1906 29.97 59.7239 29.83 59.1452 29.83H57.3392V33.484ZM64.7741 39C64.6808 39 64.5734 38.9813 64.4521 38.944C64.3401 38.8973 64.2468 38.8367 64.1721 38.762C64.1068 38.6873 64.0741 38.6033 64.0741 38.51C64.0741 38.4727 64.0788 38.4353 64.0881 38.398L66.9581 29.088C66.9954 28.948 67.0841 28.8453 67.2241 28.78C67.3641 28.7147 67.5134 28.682 67.6721 28.682C67.8401 28.682 67.9941 28.7193 68.1341 28.794C68.2741 28.8593 68.3628 28.9573 68.4001 29.088L71.2561 38.398C71.2748 38.4353 71.2841 38.468 71.2841 38.496C71.2841 38.5893 71.2421 38.6733 71.1581 38.748C71.0834 38.8227 70.9901 38.8833 70.8781 38.93C70.7661 38.9767 70.6588 39 70.5561 39C70.4534 39 70.3648 38.9813 70.2901 38.944C70.2154 38.8973 70.1641 38.8273 70.1361 38.734L69.5061 36.648H65.8241L65.2221 38.734C65.1941 38.8273 65.1381 38.8973 65.0541 38.944C64.9794 38.9813 64.8861 39 64.7741 39ZM66.1041 35.682H69.2401L67.6721 30.418L66.1041 35.682ZM74.208 39C74.068 39 73.9327 38.9673 73.802 38.902C73.6807 38.8273 73.62 38.72 73.62 38.58V29.172C73.62 29.0227 73.6807 28.92 73.802 28.864C73.9327 28.7987 74.068 28.766 74.208 28.766C74.3573 28.766 74.4833 28.794 74.586 28.85C74.6887 28.906 74.782 28.99 74.866 29.102C74.95 29.2047 75.034 29.34 75.118 29.508L78.59 36.326V29.172C78.59 29.032 78.6507 28.9293 78.772 28.864C78.9027 28.7987 79.038 28.766 79.178 28.766C79.3273 28.766 79.4627 28.7987 79.584 28.864C79.7053 28.9293 79.766 29.032 79.766 29.172V38.58C79.766 38.72 79.7053 38.8273 79.584 38.902C79.4627 38.9673 79.3273 39 79.178 39C79.0287 39 78.8887 38.9487 78.758 38.846C78.6367 38.7433 78.534 38.6173 78.45 38.468L74.796 31.426V38.58C74.796 38.72 74.7353 38.8273 74.614 38.902C74.4927 38.9673 74.3573 39 74.208 39ZM85.3245 39C85.1751 39 85.0398 38.9673 84.9185 38.902C84.7971 38.8273 84.7365 38.72 84.7365 38.58V29.858H82.4685C82.3471 29.858 82.2491 29.802 82.1745 29.69C82.0998 29.578 82.0625 29.4473 82.0625 29.298C82.0625 29.1673 82.0951 29.046 82.1605 28.934C82.2258 28.822 82.3285 28.766 82.4685 28.766H88.1805C88.3205 28.766 88.4231 28.822 88.4885 28.934C88.5538 29.046 88.5865 29.1673 88.5865 29.298C88.5865 29.438 88.5538 29.5687 88.4885 29.69C88.4231 29.802 88.3205 29.858 88.1805 29.858H85.9125V38.58C85.9125 38.72 85.8518 38.8273 85.7305 38.902C85.6091 38.9673 85.4738 39 85.3245 39Z" fill="#FEB73D"/>
<path d="M97.5385 39.14C96.8571 39.14 96.2691 39 95.7745 38.72C95.2798 38.44 94.9018 38.076 94.6405 37.628C94.3791 37.1707 94.2485 36.6713 94.2485 36.13C94.2485 35.6633 94.3371 35.2527 94.5145 34.898C94.6918 34.534 94.9205 34.2213 95.2005 33.96C95.4898 33.6893 95.7885 33.4793 96.0965 33.33C95.8258 33.0033 95.5785 32.6533 95.3545 32.28C95.1305 31.9067 95.0185 31.4633 95.0185 30.95C95.0185 30.4367 95.1351 29.998 95.3685 29.634C95.6111 29.27 95.9331 28.9947 96.3345 28.808C96.7358 28.6213 97.1745 28.528 97.6505 28.528C98.1825 28.528 98.6258 28.6167 98.9805 28.794C99.3445 28.962 99.6151 29.158 99.7925 29.382C99.9791 29.606 100.072 29.7973 100.072 29.956C100.072 30.096 100.016 30.222 99.9045 30.334C99.7925 30.446 99.6618 30.502 99.5125 30.502C99.4098 30.502 99.3118 30.4507 99.2185 30.348C99.1251 30.2453 99.0178 30.1287 98.8965 29.998C98.7845 29.858 98.6305 29.7413 98.4345 29.648C98.2478 29.5453 98.0005 29.494 97.6925 29.494C97.2351 29.494 96.8665 29.6293 96.5865 29.9C96.3158 30.1707 96.1805 30.544 96.1805 31.02C96.1805 31.328 96.2458 31.622 96.3765 31.902C96.5165 32.1727 96.6891 32.4293 96.8945 32.672C97.0998 32.9147 97.3098 33.1527 97.5245 33.386L100.198 36.298C100.385 35.8687 100.497 35.4393 100.534 35.01C100.581 34.5807 100.609 34.2213 100.618 33.932C100.637 33.7827 100.679 33.6753 100.744 33.61C100.819 33.5447 100.954 33.512 101.15 33.512C101.346 33.512 101.477 33.5633 101.542 33.666C101.617 33.7593 101.654 33.904 101.654 34.1C101.654 34.296 101.631 34.5573 101.584 34.884C101.547 35.2107 101.477 35.5653 101.374 35.948C101.272 36.3307 101.122 36.6993 100.926 37.054L102.172 38.384C102.2 38.4213 102.219 38.4633 102.228 38.51C102.247 38.5473 102.256 38.5847 102.256 38.622C102.256 38.7433 102.2 38.8553 102.088 38.958C101.976 39.0607 101.855 39.112 101.724 39.112C101.668 39.112 101.617 39.098 101.57 39.07C101.524 39.0513 101.472 39.014 101.416 38.958L100.352 37.838C100.044 38.2113 99.6571 38.524 99.1905 38.776C98.7331 39.0187 98.1825 39.14 97.5385 39.14ZM97.6925 38.09C98.1685 38.09 98.5605 37.9967 98.8685 37.81C99.1858 37.6233 99.4425 37.3853 99.6385 37.096L96.7685 34.044C96.5725 34.1653 96.3718 34.3147 96.1665 34.492C95.9611 34.66 95.7885 34.87 95.6485 35.122C95.5085 35.3647 95.4385 35.668 95.4385 36.032C95.4385 36.396 95.5225 36.7367 95.6905 37.054C95.8678 37.3713 96.1245 37.6233 96.4605 37.81C96.7965 37.9967 97.2071 38.09 97.6925 38.09ZM109.037 39C108.879 39 108.748 38.9627 108.645 38.888C108.552 38.804 108.505 38.706 108.505 38.594V29.186C108.505 29.046 108.561 28.9433 108.673 28.878C108.785 28.8033 108.907 28.766 109.037 28.766H111.445C111.959 28.766 112.43 28.8313 112.859 28.962C113.298 29.0833 113.643 29.3167 113.895 29.662C114.157 30.0073 114.287 30.5067 114.287 31.16C114.287 31.748 114.18 32.238 113.965 32.63C113.751 33.022 113.461 33.2973 113.097 33.456C113.387 33.568 113.639 33.722 113.853 33.918C114.068 34.1047 114.236 34.352 114.357 34.66C114.479 34.9587 114.539 35.3507 114.539 35.836V36.088C114.539 36.8067 114.418 37.3807 114.175 37.81C113.933 38.23 113.601 38.5333 113.181 38.72C112.761 38.9067 112.29 39 111.767 39H109.037ZM109.681 37.936H111.571C112.141 37.936 112.579 37.782 112.887 37.474C113.205 37.166 113.363 36.6807 113.363 36.018V35.78C113.363 35.108 113.205 34.6367 112.887 34.366C112.579 34.086 112.141 33.946 111.571 33.946H109.681V37.936ZM109.681 32.966H111.431C112.01 32.966 112.435 32.84 112.705 32.588C112.976 32.3267 113.111 31.9067 113.111 31.328C113.111 30.9453 113.037 30.6467 112.887 30.432C112.747 30.208 112.547 30.054 112.285 29.97C112.033 29.8767 111.735 29.83 111.389 29.83H109.681V32.966ZM117.198 39C117.105 39 116.997 38.9813 116.876 38.944C116.764 38.8973 116.671 38.8367 116.596 38.762C116.531 38.6873 116.498 38.6033 116.498 38.51C116.498 38.4727 116.503 38.4353 116.512 38.398L119.382 29.088C119.419 28.948 119.508 28.8453 119.648 28.78C119.788 28.7147 119.937 28.682 120.096 28.682C120.264 28.682 120.418 28.7193 120.558 28.794C120.698 28.8593 120.787 28.9573 120.824 29.088L123.68 38.398C123.699 38.4353 123.708 38.468 123.708 38.496C123.708 38.5893 123.666 38.6733 123.582 38.748C123.507 38.8227 123.414 38.8833 123.302 38.93C123.19 38.9767 123.083 39 122.98 39C122.877 39 122.789 38.9813 122.714 38.944C122.639 38.8973 122.588 38.8273 122.56 38.734L121.93 36.648H118.248L117.646 38.734C117.618 38.8273 117.562 38.8973 117.478 38.944C117.403 38.9813 117.31 39 117.198 39ZM118.528 35.682H121.664L120.096 30.418L118.528 35.682ZM131.476 39.028C131.364 39.028 131.261 38.9813 131.168 38.888C131.084 38.7947 131.009 38.6873 130.944 38.566L128.844 34.464H127.22V38.58C127.22 38.72 127.159 38.8273 127.038 38.902C126.917 38.9673 126.781 39 126.632 39C126.492 39 126.357 38.9673 126.226 38.902C126.105 38.8273 126.044 38.72 126.044 38.58V29.172C126.044 29.06 126.081 28.9667 126.156 28.892C126.24 28.8173 126.343 28.7753 126.464 28.766H129.026C129.595 28.766 130.113 28.8547 130.58 29.032C131.056 29.2 131.434 29.4893 131.714 29.9C131.994 30.3013 132.134 30.8567 132.134 31.566C132.134 32.1353 132.041 32.6067 131.854 32.98C131.677 33.3533 131.429 33.6473 131.112 33.862C130.795 34.0673 130.44 34.212 130.048 34.296L132.12 38.23C132.139 38.2673 132.153 38.3047 132.162 38.342C132.171 38.37 132.176 38.398 132.176 38.426C132.176 38.5287 132.139 38.6267 132.064 38.72C131.999 38.8133 131.91 38.888 131.798 38.944C131.695 39 131.588 39.028 131.476 39.028ZM127.22 33.484H129.026C129.605 33.484 130.071 33.344 130.426 33.064C130.781 32.784 130.958 32.3127 130.958 31.65C130.958 30.9873 130.781 30.5207 130.426 30.25C130.071 29.97 129.605 29.83 129.026 29.83H127.22V33.484Z" fill="white"/>
<path d="M10.17 13.5L3.15 2.58C3.01 2.38 2.85 2.22 2.67 2.1C2.49 1.96 2.28 1.87 2.04 1.83L0.45 1.47V0.809999H11.25V1.47L9.72 1.8C9.24 1.9 8.87 2.08 8.61 2.34C8.37 2.58 8.41 2.95 8.73 3.45L12.72 9.81H12.21L16.86 3.12C17.02 2.88 17.06 2.67 16.98 2.49C16.9 2.29 16.63 2.14 16.17 2.04L13.62 1.47V0.809999H21.99V1.47L20.1 1.86C19.72 1.94 19.4 2.06 19.14 2.22C18.88 2.36 18.68 2.6 18.54 2.94L11.46 13.29L10.17 13.5ZM5.67 21V20.34L7.2 20.01C7.9 19.85 8.34 19.67 8.52 19.47C8.72 19.27 8.82 18.86 8.82 18.24V10.41L13.02 10.17V18.24C13.02 18.86 13.12 19.27 13.32 19.47C13.52 19.67 13.96 19.85 14.64 20.01L16.17 20.34V21H5.67ZM38.1614 21.33C37.2014 21.33 36.2614 21.17 35.3414 20.85C34.4414 20.51 33.6214 20.04 32.8814 19.44C32.1614 18.84 31.5914 18.13 31.1714 17.31C30.7514 16.47 30.5414 15.55 30.5414 14.55V3.57C30.5414 2.93 30.4414 2.51 30.2414 2.31C30.0614 2.11 29.6214 1.94 28.9214 1.8L27.3914 1.47V0.809999H37.8914V1.47L36.3614 1.8C35.6814 1.94 35.2414 2.11 35.0414 2.31C34.8414 2.51 34.7414 2.93 34.7414 3.57V14.4C34.7414 15.9 35.1714 17.09 36.0314 17.97C36.8914 18.85 38.1714 19.29 39.8714 19.29C40.8514 19.29 41.7114 19.09 42.4514 18.69C43.1914 18.27 43.7714 17.7 44.1914 16.98C44.6314 16.26 44.8514 15.44 44.8514 14.52V3.57C44.8514 3.07 44.7114 2.7 44.4314 2.46C44.1714 2.2 43.7714 2.02 43.2314 1.92L41.0414 1.47V0.809999H49.2914V1.47L47.5514 1.86C47.0114 1.98 46.6014 2.16 46.3214 2.4C46.0614 2.64 45.9314 3.03 45.9314 3.57V17.73C45.6114 17.73 45.3214 17.86 45.0614 18.12C44.8214 18.36 44.5314 18.65 44.1914 18.99C43.8714 19.33 43.4714 19.68 42.9914 20.04C42.5314 20.4 41.9114 20.71 41.1314 20.97C40.3714 21.21 39.3814 21.33 38.1614 21.33ZM75.6209 21.45C74.7809 21.45 73.9809 21.3 73.2209 21C72.4609 20.7 71.7209 20.22 71.0009 19.56C70.2809 18.9 69.5609 18.04 68.8409 16.98C68.3409 16.22 67.8309 15.48 67.3109 14.76C66.7909 14.02 66.2109 13.41 65.5709 12.93C64.9509 12.43 64.2009 12.18 63.3209 12.18H62.6309V18.24C62.6309 18.86 62.7309 19.27 62.9309 19.47C63.1309 19.67 63.5709 19.85 64.2509 20.01L65.7809 20.34V21H55.2809V20.34L56.8109 20.01C57.5109 19.85 57.9509 19.67 58.1309 19.47C58.3309 19.27 58.4309 18.86 58.4309 18.24V3.57C58.4309 2.93 58.3309 2.51 58.1309 2.31C57.9509 2.11 57.5109 1.94 56.8109 1.8L55.2809 1.47V0.809999H63.6809C66.6809 0.809999 69.0209 1.29 70.7009 2.25C72.4009 3.21 73.2509 4.57 73.2509 6.33C73.2509 7.25 72.9609 8.09 72.3809 8.85C71.8209 9.59 71.0709 10.19 70.1309 10.65C69.1909 11.11 68.1609 11.4 67.0409 11.52V11.58C67.9609 11.62 68.7809 11.87 69.5009 12.33C70.2209 12.77 70.8709 13.34 71.4509 14.04C72.0509 14.72 72.6109 15.45 73.1309 16.23C73.6509 16.97 74.1709 17.66 74.6909 18.3C75.2109 18.94 75.7409 19.46 76.2809 19.86C76.8409 20.24 77.4109 20.43 77.9909 20.43V21.15C77.1909 21.35 76.4009 21.45 75.6209 21.45ZM62.6309 11.19H63.6809C64.6409 11.19 65.5209 11.03 66.3209 10.71C67.1409 10.37 67.7909 9.87 68.2709 9.21C68.7509 8.53 68.9909 7.67 68.9909 6.63C68.9909 5.05 68.4909 3.85 67.4909 3.03C66.5109 2.21 65.1109 1.8 63.2909 1.8H62.6309V11.19ZM82.7906 21V20.34L84.5306 19.95C84.9706 19.85 85.3006 19.71 85.5206 19.53C85.7606 19.33 85.9506 19.07 86.0906 18.75L92.2106 4.26L91.2806 1.95C91.9206 1.93 92.4606 1.81 92.9006 1.59C93.3406 1.35 93.6706 1.09 93.8906 0.809999C94.1106 0.509999 94.2206 0.259999 94.2206 0.0599996H94.6406L102.501 19.14C102.601 19.38 102.761 19.56 102.981 19.68C103.201 19.8 103.551 19.91 104.031 20.01L105.561 20.34V21H95.0606V20.34L96.5906 20.01C97.0306 19.91 97.3506 19.79 97.5506 19.65C97.7706 19.49 97.8806 19.28 97.8806 19.02C97.8806 18.92 97.8606 18.82 97.8206 18.72C97.8006 18.62 97.7706 18.51 97.7306 18.39L92.3906 5.01H93.0506L87.2306 18.78C87.2106 18.84 87.1906 18.9 87.1706 18.96C87.1706 19.02 87.1706 19.07 87.1706 19.11C87.1706 19.29 87.2406 19.45 87.3806 19.59C87.5206 19.73 87.7506 19.83 88.0706 19.89L90.6506 20.34V21H82.7906ZM89.1206 14.22V13.23H97.6706V14.22H89.1206ZM125.043 20.25C125.303 20.65 125.703 21.05 126.243 21.45C126.783 21.87 127.413 22.26 128.133 22.62C128.853 22.98 129.623 23.29 130.443 23.55C131.263 23.83 132.103 24.05 132.963 24.21C133.843 24.37 134.683 24.45 135.483 24.45L135.693 25.05C134.953 25.19 134.193 25.3 133.413 25.38C132.653 25.46 131.813 25.5 130.893 25.5C129.373 25.5 127.923 25.34 126.543 25.02C125.183 24.72 123.893 24.24 122.673 23.58C121.473 22.92 120.353 22.07 119.313 21.03L125.043 20.25ZM121.053 21.33C119.493 21.33 118.063 21.07 116.763 20.55C115.463 20.01 114.333 19.28 113.373 18.36C112.413 17.42 111.663 16.33 111.123 15.09C110.603 13.85 110.343 12.53 110.343 11.13C110.343 9.61 110.603 8.21 111.123 6.93C111.663 5.63 112.413 4.5 113.373 3.54C114.333 2.58 115.463 1.84 116.763 1.32C118.063 0.779999 119.493 0.509999 121.053 0.509999C122.613 0.509999 124.053 0.779999 125.373 1.32C126.693 1.84 127.833 2.57 128.793 3.51C129.753 4.45 130.493 5.54 131.013 6.78C131.553 8 131.823 9.32 131.823 10.74C131.823 12.26 131.553 13.66 131.013 14.94C130.493 16.22 129.753 17.34 128.793 18.3C127.833 19.26 126.693 20.01 125.373 20.55C124.053 21.07 122.613 21.33 121.053 21.33ZM121.053 20.28C122.313 20.28 123.403 19.89 124.323 19.11C125.243 18.33 125.953 17.23 126.453 15.81C126.973 14.37 127.233 12.69 127.233 10.77C127.233 8.95 126.973 7.35 126.453 5.97C125.953 4.59 125.243 3.51 124.323 2.73C123.403 1.95 122.313 1.56 121.053 1.56C119.833 1.56 118.763 1.95 117.843 2.73C116.923 3.51 116.203 4.62 115.683 6.06C115.183 7.48 114.933 9.17 114.933 11.13C114.933 12.47 115.073 13.7 115.353 14.82C115.653 15.94 116.073 16.91 116.613 17.73C117.153 18.55 117.793 19.18 118.533 19.62C119.293 20.06 120.133 20.28 121.053 20.28Z" fill="white"/>
</svg>
